<svg xmlns="http://www.w3.org/2000/svg" width="72.354" height="11.02" viewBox="0 0 72.354 11.02">
  <path id="MáS_INFO" data-name="MáS INFO" d="M3.372,11.575.533,8.742V1.028L.993.556h.714l.476.472V8.08L3.7,9.592,5.227,8.08V1.028L5.7.556h.714l.46.472V8.742L4.038,11.575Zm6.494,0-.46-.457V1.012l.46-.457h5.47l.476.457v.724l-.476.457H11.563l-.492.5V4.759l.492.488H14l.476.457v.708L14,6.884H11.563l-.492.5V9.434l.492.5h3.774l.476.472v.708l-.476.457Zm8.424,0-.46-.457V1.028l.46-.472h4.424L24.188,2.02V5.4l-.634.645.634.645v4.424l-.46.457H23l-.46-.457V7.372l-.507-.5H19.986l-.507.5v3.747L19,11.575Zm1.7-6.344h2.046l.507-.5V2.681l-.507-.488H19.986l-.507.488V4.727Zm14.246,6.344L31.394,8.742V1.028l.46-.472h.714l.476.472V8.08l1.522,1.511L36.088,8.08V1.028l.476-.472h.714l.46.472V8.742L34.9,11.575Zm6.494,0-.46-.457v-.724l.46-.457h1.9V2.193h-1.9l-.46-.457V1.012l.46-.457h5.439l.476.457v.724l-.476.457H44.279V9.938h1.887l.476.457v.724l-.476.457Zm8.9,0-.46-.457V1.012l.46-.457H54.1L55.577,2.02v8.092L54.1,11.575Zm1.7-1.637H53.4l.507-.5V2.7L53.4,2.208H51.327l-.492.488V9.434Zm7.238,1.637-.46-.457V1.012l.46-.457h5.47l.476.457v.724l-.476.457H60.262l-.492.5V4.759l.492.488H62.7l.476.457v.708l-.476.472H60.262l-.492.5V9.434l.492.5h3.774l.476.472v.708l-.476.457Zm9.438,0-1.475-1.464V2.02L68,.556h3.409L72.888,2.02v8.092l-1.475,1.464Zm.682-1.637h2.046l.507-.5V2.7l-.507-.5H68.686l-.507.5V9.434Z" transform="translate(-0.533 -0.556)" fill="#fff"/>
</svg>
